<svg id="Layer_1" height="512" viewBox="0 0 512 512" width="512" xmlns="http://www.w3.org/2000/svg" data-name="Layer 1"><path d="m148.646 213.149c17.429 3.154 40.524 4.891 65.034 4.891s47.606-1.737 65.034-4.891c21.734-3.933 31.426-9.324 31.426-17.479s-9.692-13.546-31.426-17.479c-17.428-3.154-40.524-4.891-65.034-4.891s-47.605 1.737-65.034 4.891c-21.733 3.933-31.426 9.324-31.426 17.479s9.693 13.546 31.426 17.479zm65.034-27.849c47.076 0 75.236 6.215 82.953 10.37-7.717 4.155-35.877 10.37-82.953 10.37s-75.236-6.215-82.952-10.37c7.716-4.155 35.872-10.37 82.952-10.37z"/><path d="m500 226.175h-78.638v-30.506c0-7.661-6.375-14.113-19.488-19.725-10.573-4.525-25.549-8.559-44.514-11.992-38.435-6.952-89.46-10.788-143.679-10.788s-105.244 3.836-143.681 10.788c-18.965 3.433-33.941 7.467-44.513 11.991-12.754 5.458-19.115 11.714-19.456 19.1a6.138 6.138 0 0 0 -.033.625v120.663a6.138 6.138 0 0 0 .033.625c.341 7.387 6.7 13.643 19.456 19.1 10.572 4.524 25.548 8.558 44.513 11.991 38.435 6.957 89.461 10.788 143.679 10.788h286.321a6 6 0 0 0 6-6v-120.66a6 6 0 0 0 -6-6zm-427.86-50.415c37.751-6.833 88.018-10.6 141.541-10.6s103.791 3.763 141.541 10.6c44.194 8 54.14 17.287 54.14 19.909s-9.946 11.911-54.14 19.91c-37.75 6.833-88.017 10.6-141.541 10.6s-103.79-3.763-141.541-10.6c-6.785-1.228-12.754-2.486-18.013-3.746-.119-.031-.239-.062-.362-.086-28.695-6.919-35.765-13.867-35.765-16.078 0-2.622 9.946-11.91 54.14-19.909zm337.222 35.9v14.511h-45.61c15.961-3.158 28.768-6.777 38.122-10.78a67.114 67.114 0 0 0 7.488-3.727zm84.638 135.176h-32.737v-57.836a6 6 0 0 0 -12 0v57.836h-235.582c-53.523 0-103.79-3.763-141.541-10.6-44.194-8-54.14-17.287-54.14-19.909v-104.663a67.13 67.13 0 0 0 7.489 3.732 151.1 151.1 0 0 0 21.137 6.937v58.488a6.168 6.168 0 0 0 5.815 6.249 6 6 0 0 0 6.185-6v-55.919q5.428 1.155 11.376 2.236 4.95.9 10.178 1.72v24.871a6.167 6.167 0 0 0 5.82 6.249 6 6 0 0 0 6.185-6v-23.359q10.371 1.409 21.552 2.558v55.026a6.168 6.168 0 0 0 5.815 6.249 6 6 0 0 0 6.185-6v-54.139q10.514.916 21.554 1.606v28.074a6.167 6.167 0 0 0 5.815 6.249 6 6 0 0 0 6.185-6v-27.645q10.6.531 21.553.85v55.23a6.167 6.167 0 0 0 5.815 6.249 6 6 0 0 0 6.185-6v-55.192q10.322.191 20.842.192h.711v24.751a6.167 6.167 0 0 0 5.815 6.249 6 6 0 0 0 6.185-6v-25h21.553v58.3a6.167 6.167 0 0 0 5.815 6.249 6 6 0 0 0 6.185-6v-58.549h21.55v24.751a6.167 6.167 0 0 0 5.814 6.249 6 6 0 0 0 6.186-6v-25h21.553v58.3a6.167 6.167 0 0 0 5.815 6.249 6 6 0 0 0 6.185-6v-58.549h21.547v24.751a6.167 6.167 0 0 0 5.814 6.249 6 6 0 0 0 6.186-6v-25h21.553v58.3a6.167 6.167 0 0 0 5.815 6.249 6 6 0 0 0 6.185-6v-58.549h21.552v24.751a6.168 6.168 0 0 0 5.815 6.249 6 6 0 0 0 6.185-6v-25h21.554v21.825a6 6 0 0 0 12 0v-21.825h32.741z"/></svg>